<mxfile host="app.diagrams.net" modified="2021-06-20T18:57:56.447Z" agent="5.0 (Windows NT 10.0; Win64; x64) AppleWebKit/537.36 (KHTML, like Gecko) Chrome/91.0.4472.106 Safari/537.36" etag="QkRazfO4zo44d0MhzcKj" version="14.8.0" type="github">
  <diagram id="C5RBs43oDa-KdzZeNtuy" name="Page-1">
    <mxGraphModel dx="868" dy="450" grid="1" gridSize="10" guides="1" tooltips="1" connect="1" arrows="1" fold="1" page="1" pageScale="1" pageWidth="827" pageHeight="1169" math="0" shadow="0">
      <root>
        <mxCell id="WIyWlLk6GJQsqaUBKTNV-0" />
        <mxCell id="WIyWlLk6GJQsqaUBKTNV-1" parent="WIyWlLk6GJQsqaUBKTNV-0" />
        <mxCell id="69TjORK9Yie7uKS8ToMU-2" value="" style="edgeStyle=orthogonalEdgeStyle;rounded=0;orthogonalLoop=1;jettySize=auto;html=1;" edge="1" parent="WIyWlLk6GJQsqaUBKTNV-1" source="69TjORK9Yie7uKS8ToMU-0" target="69TjORK9Yie7uKS8ToMU-1">
          <mxGeometry relative="1" as="geometry" />
        </mxCell>
        <mxCell id="69TjORK9Yie7uKS8ToMU-4" value="" style="edgeStyle=orthogonalEdgeStyle;rounded=0;orthogonalLoop=1;jettySize=auto;html=1;" edge="1" parent="WIyWlLk6GJQsqaUBKTNV-1" source="69TjORK9Yie7uKS8ToMU-0">
          <mxGeometry relative="1" as="geometry">
            <mxPoint x="550" y="530" as="targetPoint" />
          </mxGeometry>
        </mxCell>
        <mxCell id="69TjORK9Yie7uKS8ToMU-10" value="" style="edgeStyle=orthogonalEdgeStyle;rounded=0;orthogonalLoop=1;jettySize=auto;html=1;" edge="1" parent="WIyWlLk6GJQsqaUBKTNV-1" source="69TjORK9Yie7uKS8ToMU-0" target="69TjORK9Yie7uKS8ToMU-9">
          <mxGeometry relative="1" as="geometry" />
        </mxCell>
        <mxCell id="69TjORK9Yie7uKS8ToMU-13" style="edgeStyle=orthogonalEdgeStyle;rounded=0;orthogonalLoop=1;jettySize=auto;html=1;" edge="1" parent="WIyWlLk6GJQsqaUBKTNV-1" source="69TjORK9Yie7uKS8ToMU-0" target="69TjORK9Yie7uKS8ToMU-11">
          <mxGeometry relative="1" as="geometry">
            <Array as="points">
              <mxPoint x="330" y="530" />
              <mxPoint x="330" y="440" />
            </Array>
          </mxGeometry>
        </mxCell>
        <mxCell id="69TjORK9Yie7uKS8ToMU-15" value="" style="edgeStyle=orthogonalEdgeStyle;rounded=0;orthogonalLoop=1;jettySize=auto;html=1;" edge="1" parent="WIyWlLk6GJQsqaUBKTNV-1" source="69TjORK9Yie7uKS8ToMU-0" target="69TjORK9Yie7uKS8ToMU-14">
          <mxGeometry relative="1" as="geometry" />
        </mxCell>
        <mxCell id="69TjORK9Yie7uKS8ToMU-18" style="edgeStyle=orthogonalEdgeStyle;rounded=0;orthogonalLoop=1;jettySize=auto;html=1;entryX=0.97;entryY=0.25;entryDx=0;entryDy=0;entryPerimeter=0;" edge="1" parent="WIyWlLk6GJQsqaUBKTNV-1" source="69TjORK9Yie7uKS8ToMU-0" target="69TjORK9Yie7uKS8ToMU-17">
          <mxGeometry relative="1" as="geometry">
            <Array as="points">
              <mxPoint x="320" y="530" />
              <mxPoint x="320" y="610" />
            </Array>
          </mxGeometry>
        </mxCell>
        <mxCell id="69TjORK9Yie7uKS8ToMU-21" style="edgeStyle=orthogonalEdgeStyle;rounded=0;orthogonalLoop=1;jettySize=auto;html=1;" edge="1" parent="WIyWlLk6GJQsqaUBKTNV-1" source="69TjORK9Yie7uKS8ToMU-0" target="69TjORK9Yie7uKS8ToMU-20">
          <mxGeometry relative="1" as="geometry" />
        </mxCell>
        <mxCell id="69TjORK9Yie7uKS8ToMU-0" value="Notebook" style="rounded=1;whiteSpace=wrap;html=1;" vertex="1" parent="WIyWlLk6GJQsqaUBKTNV-1">
          <mxGeometry x="350" y="500" width="120" height="60" as="geometry" />
        </mxCell>
        <mxCell id="69TjORK9Yie7uKS8ToMU-1" value="Pantalla" style="ellipse;whiteSpace=wrap;html=1;rounded=1;" vertex="1" parent="WIyWlLk6GJQsqaUBKTNV-1">
          <mxGeometry x="150" y="500" width="120" height="60" as="geometry" />
        </mxCell>
        <mxCell id="69TjORK9Yie7uKS8ToMU-6" value="Disco Duro" style="ellipse;shape=doubleEllipse;whiteSpace=wrap;html=1;fillColor=#FFFFFF;" vertex="1" parent="WIyWlLk6GJQsqaUBKTNV-1">
          <mxGeometry x="550" y="500" width="100" height="60" as="geometry" />
        </mxCell>
        <mxCell id="69TjORK9Yie7uKS8ToMU-9" value="Color" style="ellipse;whiteSpace=wrap;html=1;rounded=1;" vertex="1" parent="WIyWlLk6GJQsqaUBKTNV-1">
          <mxGeometry x="350" y="360" width="120" height="60" as="geometry" />
        </mxCell>
        <mxCell id="69TjORK9Yie7uKS8ToMU-11" value="Año" style="ellipse;whiteSpace=wrap;html=1;fillColor=#FFFFFF;" vertex="1" parent="WIyWlLk6GJQsqaUBKTNV-1">
          <mxGeometry x="180" y="400" width="120" height="80" as="geometry" />
        </mxCell>
        <mxCell id="69TjORK9Yie7uKS8ToMU-14" value="&lt;u&gt;N° de serie&lt;/u&gt;" style="ellipse;whiteSpace=wrap;html=1;rounded=1;" vertex="1" parent="WIyWlLk6GJQsqaUBKTNV-1">
          <mxGeometry x="470" y="590" width="120" height="60" as="geometry" />
        </mxCell>
        <mxCell id="69TjORK9Yie7uKS8ToMU-17" value="Antigüedad" style="ellipse;whiteSpace=wrap;html=1;align=center;dashed=1;fillColor=#FFFFFF;" vertex="1" parent="WIyWlLk6GJQsqaUBKTNV-1">
          <mxGeometry x="170" y="600" width="100" height="40" as="geometry" />
        </mxCell>
        <mxCell id="69TjORK9Yie7uKS8ToMU-23" value="" style="edgeStyle=orthogonalEdgeStyle;rounded=0;orthogonalLoop=1;jettySize=auto;html=1;" edge="1" parent="WIyWlLk6GJQsqaUBKTNV-1" source="69TjORK9Yie7uKS8ToMU-20" target="69TjORK9Yie7uKS8ToMU-22">
          <mxGeometry relative="1" as="geometry" />
        </mxCell>
        <mxCell id="69TjORK9Yie7uKS8ToMU-27" style="edgeStyle=orthogonalEdgeStyle;rounded=0;orthogonalLoop=1;jettySize=auto;html=1;entryX=0.6;entryY=-0.075;entryDx=0;entryDy=0;entryPerimeter=0;" edge="1" parent="WIyWlLk6GJQsqaUBKTNV-1" source="69TjORK9Yie7uKS8ToMU-20" target="69TjORK9Yie7uKS8ToMU-26">
          <mxGeometry relative="1" as="geometry" />
        </mxCell>
        <mxCell id="69TjORK9Yie7uKS8ToMU-20" value="Metodo de entrada" style="ellipse;whiteSpace=wrap;html=1;align=center;fillColor=#FFFFFF;" vertex="1" parent="WIyWlLk6GJQsqaUBKTNV-1">
          <mxGeometry x="320" y="640" width="100" height="40" as="geometry" />
        </mxCell>
        <mxCell id="69TjORK9Yie7uKS8ToMU-22" value="Mouse" style="ellipse;whiteSpace=wrap;html=1;fillColor=#FFFFFF;" vertex="1" parent="WIyWlLk6GJQsqaUBKTNV-1">
          <mxGeometry x="240" y="700" width="120" height="60" as="geometry" />
        </mxCell>
        <mxCell id="69TjORK9Yie7uKS8ToMU-26" value="Teclado" style="ellipse;whiteSpace=wrap;html=1;align=center;fillColor=#FFFFFF;" vertex="1" parent="WIyWlLk6GJQsqaUBKTNV-1">
          <mxGeometry x="414" y="720" width="100" height="40" as="geometry" />
        </mxCell>
      </root>
    </mxGraphModel>
  </diagram>
</mxfile>
